<?xml version="1.0" encoding="utf-8"?>
<svg xmlns="http://www.w3.org/2000/svg" version="1.1" viewBox="-5 -10 110 120">
  <path d="m75.883 22.578h-51.734c-0.84375 0-1.5273 0.68359-1.5273 1.5273v51.746c0 0.84375 0.68359 1.5273 1.5273 1.5273h51.746c0.84375 0 1.5273-0.68359 1.5273-1.5273v-51.734c0-0.84375-0.69531-1.5391-1.5391-1.5391zm-1.5234 51.75h-48.688v-48.688h48.684z"/>
  <path d="m31.02 55.957v0.050781c-0.050781 0.36719-0.09375 0.72656-0.09375 1.1055 0 0.125 0.019531 0.25391 0.050781 0.37891 0.23047 3.3477 2.7148 6.0859 5.9375 6.707 0.65234 3.4102 3.6406 5.9883 7.2305 5.9883 2.3906 0 4.5039-1.1367 5.8633-2.9062 1.3477 1.7578 3.4648 2.9062 5.832 2.9062 3.6016 0 6.6016-2.5898 7.2617-5.9883 3.3164-0.64062 5.832-3.5039 5.957-6.9688 0-0.042969 0.011718-0.074219 0.011718-0.11719v-0.0625-0.085937c0-0.34766-0.019531-0.68359-0.0625-1.0195 1.9062-1.3672 3.043-3.5703 3.043-5.9688 0-2.3594-1.1562-4.5898-3.043-5.957 0-0.03125 0-0.0625 0.011719-0.09375 0.03125-0.29297 0.0625-0.60156 0.0625-0.90625 0-3.6016-2.5703-6.6016-5.9688-7.2617-0.65234-3.3906-3.6641-5.9688-7.2617-5.9688-2.3789 0-4.4844 1.1367-5.832 2.8945-1.3477-1.7578-3.4727-2.8945-5.8633-2.8945-3.5781 0-6.5781 2.5703-7.2305 5.9688-3.3906 0.65234-5.9688 3.6641-5.9688 7.2617 0 0.30469 0.019531 0.60938 0.0625 0.91406v0.074218c-1.8945 1.3672-3.043 3.5586-3.043 5.9688 0.003907 2.4219 1.1484 4.6133 3.043 5.9805zm24.824-23.094c2.3906 0 4.3281 1.9258 4.3281 4.3047 0 1.1562-0.46484 2.2422-1.293 3.0625-0.60938 0.58984-0.62109 1.5586-0.03125 2.168 0.29297 0.30469 0.69531 0.46484 1.0938 0.46484 0.39062 0 0.76953-0.14844 1.0625-0.42969 1-0.98047 1.6836-2.1797 2-3.4961 1.7266 0.55859 2.9883 2.1797 2.9883 4.1055 0 0.29297-0.042969 0.58984-0.09375 0.875-0.011719 0.050781-0.019532 0.10547-0.03125 0.14844-0.22266 0.89453-0.71484 1.707-1.4414 2.3047-0.65234 0.53516-0.74609 1.5039-0.21094 2.1562 0.30469 0.36719 0.73828 0.55859 1.1797 0.55859 0.34766 0 0.68359-0.11719 0.96875-0.34766 0.57812-0.47266 1.0625-1.0312 1.4648-1.6328 0.71484 0.78906 1.1484 1.8203 1.1484 2.9062 0 1.1367-0.44141 2.1914-1.1992 2.9688-0.39062-0.57812-0.85156-1.1055-1.4102-1.5586-0.65234-0.53516-1.6211-0.44141-2.1562 0.21094-0.53516 0.65234-0.44141 1.6211 0.21094 2.1562 0.98828 0.80859 1.5469 2 1.5703 3.2852-0.03125 1.8828-1.2734 3.4531-2.9883 4-0.32812-1.3164-1-2.5273-2-3.4961-0.60938-0.58984-1.5781-0.57812-2.168 0.03125-0.58984 0.60938-0.57813 1.5781 0.03125 2.168 0.84375 0.80859 1.293 1.9062 1.293 3.0625 0 2.3906-1.9492 4.3359-4.3281 4.3359-2.3672 0-4.3047-1.9492-4.3047-4.3359l-0.011719-25.672c0.03125-2.3789 1.957-4.3047 4.3281-4.3047zm-22.18 15.863c0.28516 0.23047 0.62109 0.33594 0.95703 0.33594 0.45312 0 0.89453-0.19922 1.1914-0.57031 0.52734-0.66406 0.42188-1.6211-0.23047-2.1484-0.71484-0.57812-1.2109-1.3672-1.4219-2.2539-0.019531-0.0625-0.03125-0.125-0.042968-0.19922-0.050782-0.28516-0.09375-0.57031-0.09375-0.86328 0-1.9258 1.2617-3.5352 2.9883-4.1055 0.31641 1.3047 0.98047 2.5039 1.957 3.4844 0.29297 0.29297 0.69531 0.45312 1.0859 0.45312 0.39062 0 0.77734-0.14844 1.0859-0.45312 0.60156-0.60156 0.60156-1.5703 0-2.168-0.83203-0.83203-1.2852-1.9141-1.2852-3.0742 0-2.3672 1.9258-4.3047 4.3047-4.3047 2.3906 0 4.3281 1.9258 4.3281 4.3047v25.641c0 2.3906-1.9492 4.3359-4.3281 4.3359-2.3672 0-4.3047-1.9492-4.3047-4.3359 0-1.1562 0.45312-2.2539 1.2852-3.0742 0.60156-0.60156 0.60156-1.5703 0-2.168-0.60156-0.60156-1.5703-0.60156-2.168 0-0.98047 0.98047-1.6406 2.1797-1.957 3.4844-1.7266-0.55859-2.9883-2.168-2.9883-4.0742 0-0.11719 0.019531-0.22266 0.019531-0.32812 0.019531-0.14844 0.019531-0.30469 0.050781-0.45312 0-0.019531 0.011719-0.042968 0.011719-0.0625 0.21094-0.91406 0.72656-1.7461 1.4727-2.3477 0.66406-0.52734 0.76953-1.4961 0.23047-2.1484-0.52734-0.66406-1.4961-0.76953-2.1484-0.23047-0.55859 0.45312-1.043 0.98047-1.4297 1.5586-0.74609-0.77734-1.1914-1.832-1.1914-2.9688 0-1.1055 0.42188-2.1367 1.125-2.9062 0.41016 0.60937 0.90625 1.168 1.4961 1.6406z"/>
  <path d="m40.57 46.957c3.0508 0 5.5469-2.4844 5.5469-5.5469 0-0.84375-0.68359-1.5273-1.5273-1.5273s-1.5273 0.68359-1.5273 1.5273c0 1.3672-1.1172 2.4844-2.4844 2.4844-0.84375 0-1.5273 0.68359-1.5273 1.5273 0 0.83984 0.67578 1.5352 1.5195 1.5352z"/>
  <path d="m40.57 55.328c1.3672 0 2.4844 1.1055 2.4844 2.4531 0 0.84375 0.68359 1.5273 1.5273 1.5273s1.5273-0.68359 1.5273-1.5273c0-3.043-2.4844-5.5156-5.5469-5.5156-0.84375 0-1.5273 0.68359-1.5273 1.5273 0.007813 0.84766 0.69141 1.5352 1.5352 1.5352z"/>
  <path d="m59.43 46.957c0.84375 0 1.5273-0.68359 1.5273-1.5273s-0.68359-1.5273-1.5273-1.5273c-1.3594 0-2.4531-1.1172-2.4531-2.4844 0-0.84375-0.68359-1.5273-1.5273-1.5273s-1.5273 0.68359-1.5273 1.5273c-0.007813 3.0469 2.4688 5.5391 5.5078 5.5391z"/>
  <path d="m55.441 59.316c0.84375 0 1.5273-0.68359 1.5273-1.5273 0-1.3594 1.1055-2.4531 2.4531-2.4531 0.84375 0 1.5273-0.68359 1.5273-1.5273s-0.68359-1.5273-1.5273-1.5273c-3.043 0-5.5156 2.4727-5.5156 5.5156 0.007812 0.83594 0.69531 1.5195 1.5352 1.5195z"/>
  <path d="m83.602 41.727h7.8516c0.84375 0 1.5273-0.68359 1.5273-1.5273v-10.516c2.4961-0.45312 4.3906-2.6328 4.3906-5.2422 0-2.9492-2.3984-5.3359-5.3359-5.3359s-5.3359 2.3984-5.3359 5.3359c0 2.1992 1.3359 4.0859 3.2305 4.9062v9.3281h-6.3281v-15.57c0-3.6953-2.9883-6.6953-6.6719-6.6953h-15.457v-6.9062h25.453c0.66406 2.1992 2.6836 3.8086 5.0938 3.8086 2.9492 0 5.3359-2.3984 5.3359-5.3359 0.003906-2.9336-2.3867-5.3438-5.3242-5.3438-2.4102 0-4.4297 1.6094-5.0938 3.8086h-26.988c-0.84375 0-1.5273 0.68359-1.5273 1.5273v8.4297h-6.875v-3.3359c2.1992-0.66406 3.8086-2.6836 3.8086-5.0938 0-2.9492-2.3984-5.3359-5.3359-5.3359-2.957 0-5.3672 2.3984-5.3672 5.3359 0 2.4102 1.6328 4.4297 3.8438 5.0938v3.3359h-6.7578v-7.8516c0-0.84375-0.68359-1.5273-1.5273-1.5273h-10.496c-0.46094-2.4922-2.6523-4.3867-5.2852-4.3867-2.9492 0-5.3359 2.3984-5.3359 5.3359s2.3984 5.3359 5.3359 5.3359c2.2109 0 4.1055-1.3359 4.9258-3.2305h9.3047v6.3281l-15.555-0.003906c-3.6719 0-6.6719 3-6.6719 6.6953l-0.003906 15.434h-6.8945v-25.465c2.1992-0.66406 3.8086-2.6836 3.8086-5.0938 0-2.9492-2.3984-5.3359-5.3359-5.3359-2.957 0-5.3672 2.3984-5.3672 5.3359 0 2.4102 1.6328 4.4297 3.8438 5.0938v26.988c0 0.84375 0.68359 1.5273 1.5273 1.5273h8.4297v6.875h-3.3359c-0.66406-2.1992-2.6836-3.8086-5.0938-3.8086-2.957 0-5.3672 2.3984-5.3672 5.3359 0 2.957 2.4102 5.3672 5.3672 5.3672 2.4102 0 4.4297-1.6328 5.0938-3.8438h3.3359v6.7578h-7.8945c-0.84375 0-1.5273 0.68359-1.5273 1.5273v10.496c-2.4922 0.47266-4.3867 2.6641-4.3867 5.2852 0 2.9492 2.4102 5.3359 5.3672 5.3359 2.9492 0 5.3359-2.3984 5.3359-5.3359 0-2.2227-1.3477-4.125-3.2617-4.9492v-9.2852h6.3477v15.559c0 3.6953 2.9883 6.6953 6.6719 6.6953h15.453v6.875h-25.453c-0.66406-2.1992-2.6836-3.8086-5.0938-3.8086-2.957 0-5.3672 2.3984-5.3672 5.3359 0 2.957 2.4102 5.3672 5.3672 5.3672 2.4102 0 4.4297-1.6328 5.0938-3.8438h26.988c0.84375 0 1.5273-0.68359 1.5273-1.5273v-8.3984h6.875v3.3047c-2.2109 0.66406-3.8438 2.6836-3.8438 5.0938 0 2.957 2.4102 5.3672 5.3672 5.3672 2.9492 0 5.3359-2.4102 5.3359-5.3672 0-2.4102-1.6094-4.4297-3.8086-5.0938v-3.3164h6.7266v7.8516c0 0.84375 0.68359 1.5273 1.5273 1.5273h10.527c0.46484 2.4961 2.6328 4.3906 5.2422 4.3906 2.9492 0 5.3359-2.4102 5.3359-5.3672 0-2.9492-2.3984-5.3359-5.3359-5.3359-2.2109 0-4.1055 1.3477-4.9141 3.2617h-9.3164v-6.3281h15.59c3.6719 0 6.6719-3 6.6719-6.6953v-15.43h6.9062v25.465c-2.1992 0.66406-3.8086 2.6836-3.8086 5.0938 0 2.957 2.3984 5.3672 5.3359 5.3672s5.3359-2.4102 5.3359-5.3672c0-2.4102-1.6094-4.4297-3.8086-5.0938l-0.003906-27.004c0-0.84375-0.68359-1.5273-1.5273-1.5273h-8.4297v-6.875h3.3359c0.66406 2.2109 2.6836 3.8438 5.0938 3.8438 2.9492 0 5.3359-2.4102 5.3359-5.3672 0-2.9492-2.3984-5.3359-5.3359-5.3359-2.4102 0-4.4297 1.6094-5.0938 3.8086h-3.3359v-6.7344zm8.4297-19.578c1.2539 0 2.2852 1.0195 2.2852 2.2852 0 1.2539-1.0195 2.2852-2.2852 2.2852-1.2539 0-2.2852-1.0195-2.2852-2.2852 0-1.2539 1.0234-2.2852 2.2852-2.2852zm0-16.453c1.2539 0 2.2852 1.0195 2.2852 2.2852 0 1.2617-1.0195 2.2852-2.2852 2.2852-1.2539 0-2.2852-1.0195-2.2852-2.2852s1.0234-2.2852 2.2852-2.2852zm-44.324 2.2734c0-1.2539 1.0312-2.2852 2.3047-2.2852 1.2539 0 2.2852 1.0195 2.2852 2.2852 0 1.2617-1.0195 2.2852-2.2852 2.2852-1.2734 0-2.3047-1.0234-2.3047-2.2852zm-23.277 2.2852c-1.2539 0-2.2852-1.0195-2.2852-2.2852 0-1.2617 1.0195-2.2852 2.2852-2.2852 1.2734 0 2.3047 1.0195 2.3047 2.2852 0.003906 1.2617-1.0273 2.2852-2.3047 2.2852zm-18.734-2.2852c0-1.2539 1.0312-2.2852 2.3047-2.2852 1.2539 0 2.2852 1.0195 2.2852 2.2852 0 1.2617-1.0234 2.2852-2.2852 2.2852-1.2734 0-2.3047-1.0234-2.3047-2.2852zm2.3047 44.324c-1.2539 0-2.3047-1.0625-2.3047-2.3047 0-1.2539 1.0312-2.2852 2.3047-2.2852 1.2539 0 2.2852 1.0195 2.2852 2.2852 0 1.2539-1.043 2.3047-2.2852 2.3047zm0 25.559c-1.2734 0-2.3047-1.0195-2.3047-2.2852 0-1.2539 1.0625-2.3047 2.3047-2.3047 1.2539 0 2.2852 1.0312 2.2852 2.3047 0 1.2656-1.0234 2.2852-2.2852 2.2852zm0 16.453c-1.2734 0-2.3047-1.0312-2.3047-2.3164 0-1.2539 1.0312-2.2852 2.3047-2.2852 1.2539 0 2.2852 1.0195 2.2852 2.2852 0 1.3047-1 2.3164-2.2852 2.3164zm44.293-2.3047c0 1.2734-1.0195 2.3164-2.2852 2.3164-1.2539 0-2.3047-1.0625-2.3047-2.3164 0-1.2305 1.0625-2.2852 2.3047-2.2852 1.2656 0 2.2852 1.0234 2.2852 2.2852zm23.277-2.2852c1.2539 0 2.2852 1.0195 2.2852 2.2852 0 1.2734-1.0195 2.3164-2.2852 2.3164-1.2539 0-2.2852-1.0312-2.2852-2.3164 0-1.2617 1.0312-2.2852 2.2852-2.2852zm18.734 2.2852c0 1.2734-1.0195 2.3164-2.2852 2.3164-1.2539 0-2.2852-1.0312-2.2852-2.3164 0-1.2539 1.0195-2.2852 2.2852-2.2852s2.2852 1.0234 2.2852 2.2852zm-2.2734-44.293c1.2539 0 2.2852 1.0195 2.2852 2.2852 0 1.2734-1.0195 2.3047-2.2852 2.3047-1.2539 0-2.2852-1.0312-2.2852-2.3047 0-1.2656 1.0234-2.2852 2.2852-2.2852zm-11.496 29.188c0 2.0117-1.6211 3.6406-3.6094 3.6406h-53.82c-1.9883 0-3.6094-1.6328-3.6094-3.6406v-53.789c0-2.0117 1.6211-3.6406 3.6094-3.6406h53.82c1.9883 0 3.6094 1.6328 3.6094 3.6406z"/>
</svg>