<?xml version="1.0" encoding="utf-8"?>
<svg xmlns="http://www.w3.org/2000/svg" viewBox="0 0 64 64" x="0px" y="0px">
  <title>_</title>
  <g data-name="Mind Map">
    <path d="M56,53a2.96548,2.96548,0,0,0-1.28534.3006l-5.18622-5.18622a5.45359,5.45359,0,0,0,.75263-4.63666l2.64245-1.3211A2.994,2.994,0,1,0,52,40a2.94267,2.94267,0,0,0,.03674.36365l-2.65423,1.327a5.47846,5.47846,0,0,0-7.49689-1.21905l-3.574-3.574a7.94765,7.94765,0,0,0,0-9.79516l3.574-3.574a5.47846,5.47846,0,0,0,7.49689-1.219l2.65423,1.327A2.94267,2.94267,0,0,0,52,24a3.01513,3.01513,0,1,0,.92352-2.15662l-2.64245-1.3211a5.45359,5.45359,0,0,0-.75263-4.63666l5.18622-5.18622A2.96548,2.96548,0,0,0,56,11a3,3,0,1,0-3-3,2.96548,2.96548,0,0,0,.3006,1.28534l-5.18622,5.18622a5.45359,5.45359,0,0,0-4.63666-.75263l-1.3211-2.64245A2.994,2.994,0,1,0,40,12a2.94267,2.94267,0,0,0,.36365-.03674l1.327,2.65423a5.47846,5.47846,0,0,0-1.21905,7.49689l-3.574,3.574a7.94765,7.94765,0,0,0-9.79516,0l-3.574-3.574a5.47846,5.47846,0,0,0-1.219-7.49689l1.327-2.65423A2.94267,2.94267,0,0,0,24,12a3.01513,3.01513,0,1,0-2.15662-.92352l-1.3211,2.64245a5.45359,5.45359,0,0,0-4.63666.75263L10.6994,9.28534A2.96548,2.96548,0,0,0,11,8a3,3,0,1,0-3,3,2.96548,2.96548,0,0,0,1.28534-.3006l5.18622,5.18622a5.45359,5.45359,0,0,0-.75263,4.63666l-2.64245,1.3211A2.994,2.994,0,1,0,12,24a2.94267,2.94267,0,0,0-.03674-.36365l2.65423-1.327a5.47846,5.47846,0,0,0,7.49689,1.219l3.574,3.574a7.94765,7.94765,0,0,0,0,9.79516l-3.574,3.574a5.47846,5.47846,0,0,0-7.49689,1.21905l-2.65423-1.327A2.94267,2.94267,0,0,0,12,40a3.01513,3.01513,0,1,0-.92352,2.15662l2.64245,1.3211a5.45359,5.45359,0,0,0,.75263,4.63666L9.28534,53.3006A2.96548,2.96548,0,0,0,8,53a3,3,0,1,0,3,3,2.96548,2.96548,0,0,0-.3006-1.28534l5.18622-5.18622a5.45359,5.45359,0,0,0,4.63666.75263l1.3211,2.64245A2.994,2.994,0,1,0,24,52a2.94267,2.94267,0,0,0-.36365.03674l-1.327-2.65423a5.47846,5.47846,0,0,0,1.219-7.49689l3.574-3.574a7.94765,7.94765,0,0,0,9.79516,0l3.574,3.574a5.47846,5.47846,0,0,0,1.21905,7.49689l-1.327,2.65423A2.94267,2.94267,0,0,0,40,52a3.01513,3.01513,0,1,0,2.15662.92352l1.3211-2.64245a5.45359,5.45359,0,0,0,4.63666-.75263l5.18622,5.18622A2.96548,2.96548,0,0,0,53,56a3,3,0,1,0,3-3ZM55,39a1,1,0,1,1-1,1A1.0013,1.0013,0,0,1,55,39Zm0-16a1,1,0,1,1-1,1A1.0013,1.0013,0,0,1,55,23ZM39,9a1,1,0,1,1,1,1A1.0013,1.0013,0,0,1,39,9ZM24,8a1,1,0,1,1-1,1A1.0013,1.0013,0,0,1,24,8ZM9,25a1,1,0,1,1,1-1A1.0013,1.0013,0,0,1,9,25ZM9,41a1,1,0,1,1,1-1A1.0013,1.0013,0,0,1,9,41ZM25,55a1,1,0,1,1-1-1A1.0013,1.0013,0,0,1,25,55Zm15,1a1,1,0,1,1,1-1A1.0013,1.0013,0,0,1,40,56ZM56,7a1,1,0,1,1-1,1A1.0013,1.0013,0,0,1,56,7ZM45,15.5A3.5,3.5,0,1,1,41.5,19,3.50424,3.50424,0,0,1,45,15.5ZM8,9A1,1,0,1,1,9,8,1.0013,1.0013,0,0,1,8,9ZM19,22.5A3.5,3.5,0,1,1,22.5,19,3.50424,3.50424,0,0,1,19,22.5ZM8,57a1,1,0,1,1,1-1A1.0013,1.0013,0,0,1,8,57Zm11-8.5A3.5,3.5,0,1,1,22.5,45,3.50424,3.50424,0,0,1,19,48.5ZM32,38a6,6,0,1,1,6-6A6.00657,6.00657,0,0,1,32,38ZM45,48.5A3.5,3.5,0,1,1,48.5,45,3.50424,3.50424,0,0,1,45,48.5ZM56,57a1,1,0,1,1,1-1A1.0013,1.0013,0,0,1,56,57Z"/>
  </g>
</svg>